<?xml version="1.0" standalone="no"?>
<!DOCTYPE svg PUBLIC "-//W3C//DTD SVG 20010904//EN"
 "http://www.w3.org/TR/2001/REC-SVG-20010904/DTD/svg10.dtd">
<svg version="1.0" xmlns="http://www.w3.org/2000/svg"
 width="500.000000pt" height="500.000000pt" viewBox="0 0 500.000000 500.000000"
 preserveAspectRatio="xMidYMid meet">
<metadata>
Created by potrace 1.16, written by Peter Selinger 2001-2019
</metadata>
<g transform="translate(0.000000,500.000000) scale(0.100000,-0.100000)"
fill="#000000" stroke="none">
<path d="M2490 4957 c-119 -28 -212 -98 -256 -192 -45 -96 -28 -126 84 -147
80 -15 126 3 212 82 76 70 113 90 167 90 41 0 130 -37 152 -63 22 -27 41 -21
41 14 0 42 -45 123 -86 154 -81 62 -207 87 -314 62z"/>
<path d="M2657 4740 c-15 -5 -58 -36 -94 -71 -89 -82 -136 -103 -222 -96 -36
3 -76 9 -88 13 -41 12 -28 -32 25 -85 70 -70 140 -94 257 -89 123 6 192 34
267 108 74 74 80 97 39 149 -32 41 -102 82 -137 80 -10 0 -32 -4 -47 -9z"/>
<path d="M2713 4411 c-28 -9 -68 -30 -88 -45 -38 -29 -92 -102 -82 -112 3 -3
29 -1 57 5 115 25 179 4 276 -89 91 -88 124 -96 211 -56 35 17 60 38 79 65
l27 41 -29 47 c-80 128 -297 198 -451 144z"/>
<path d="M2035 4386 c-131 -41 -245 -162 -245 -260 0 -30 5 -38 32 -52 41 -21
136 -29 180 -15 19 6 69 43 112 81 96 85 132 98 212 75 29 -8 69 -29 88 -45
42 -37 56 -38 56 -2 0 43 -47 128 -89 161 -79 63 -242 90 -346 57z"/>
<path d="M2632 4219 c-105 -20 -124 -58 -77 -154 90 -184 364 -252 547 -136
53 34 97 101 105 161 7 48 -5 51 -51 13 -43 -36 -87 -53 -141 -53 -59 0 -93
18 -170 90 -34 32 -71 62 -81 68 -31 15 -86 20 -132 11z"/>
<path d="M2215 4168 c-11 -6 -48 -37 -82 -70 -92 -87 -173 -113 -267 -84 -27
8 -53 13 -58 10 -5 -3 2 -23 14 -45 85 -152 357 -181 520 -56 57 45 101 101
101 132 0 31 -50 87 -99 110 -37 18 -100 19 -129 3z"/>
<path d="M2400 3543 c-159 -13 -241 -33 -348 -84 -232 -110 -254 -123 -312
-180 -84 -83 -101 -122 -227 -524 -22 -69 -26 -105 -30 -256 -5 -160 -3 -184
17 -255 66 -240 154 -426 242 -517 88 -90 318 -226 443 -262 112 -33 261 -37
415 -13 58 10 142 22 188 27 45 6 106 21 135 33 60 26 319 216 364 268 65 74
174 264 210 365 59 165 40 478 -43 725 -57 170 -107 261 -190 349 -88 94 -157
133 -329 186 -66 21 -168 57 -226 81 -94 38 -208 67 -249 62 -8 -1 -35 -3 -60
-5z m311 -78 c62 -26 168 -64 235 -84 141 -44 217 -85 288 -155 79 -79 124
-153 173 -283 70 -184 93 -300 100 -488 8 -249 -20 -340 -177 -578 -68 -102
-77 -112 -160 -165 -49 -31 -89 -61 -90 -67 -1 -16 -125 -95 -189 -121 -37
-15 -98 -28 -163 -34 -56 -6 -130 -16 -163 -22 -33 -6 -114 -11 -180 -11 -161
1 -232 24 -431 142 -213 127 -267 189 -359 416 -36 89 -76 223 -97 320 -7 35
-7 96 1 202 10 143 14 162 67 325 31 95 65 199 77 232 40 114 149 226 279 285
265 121 278 125 468 139 135 10 191 1 321 -53z"/>
<path d="M2335 3425 c-33 -7 -103 -29 -155 -48 -52 -19 -133 -47 -180 -62
-196 -62 -260 -128 -343 -350 -62 -165 -113 -443 -104 -570 7 -88 64 -280 112
-375 80 -157 200 -302 290 -348 85 -43 292 -113 364 -123 98 -14 259 -4 347
22 38 11 97 24 131 29 41 7 104 30 187 70 190 91 281 184 399 410 76 144 97
268 77 449 -22 202 -69 327 -191 508 -123 182 -262 304 -403 354 -134 46 -397
64 -531 34z m440 -34 c138 -36 239 -93 331 -185 81 -81 185 -228 243 -343 90
-180 122 -445 76 -635 -36 -144 -174 -353 -306 -460 -70 -57 -253 -130 -431
-173 -150 -36 -163 -38 -275 -32 -133 7 -151 11 -318 73 -185 69 -259 134
-379 334 -56 93 -95 199 -132 355 -20 89 -14 210 22 378 68 322 156 489 290
549 71 31 383 138 449 153 89 22 326 14 430 -14z"/>
<path d="M1893 3126 c-35 -32 -36 -34 -23 -65 7 -18 33 -48 57 -68 24 -20 53
-49 65 -65 l20 -29 -20 -22 c-59 -63 -112 -240 -112 -374 0 -64 6 -98 25 -150
79 -209 216 -338 420 -394 66 -18 96 -21 170 -16 119 8 179 27 272 89 210 141
303 299 303 516 0 315 -251 562 -571 562 -109 0 -253 -31 -303 -65 l-34 -23
-59 52 c-81 73 -103 86 -140 86 -24 0 -44 -10 -70 -34z m103 11 c12 -7 55 -42
94 -79 l73 -68 25 25 c28 28 158 70 247 80 89 9 224 -17 315 -62 54 -26 95
-56 145 -107 108 -109 155 -221 155 -375 0 -158 -51 -285 -159 -391 -76 -76
-170 -141 -238 -165 -27 -9 -57 -21 -68 -25 -80 -34 -248 -12 -371 49 -184 92
-314 301 -314 507 0 113 60 295 111 339 16 13 29 29 29 34 0 6 -36 46 -80 89
-44 43 -80 83 -80 89 0 14 67 73 83 73 7 -1 22 -6 33 -13z"/>
<path d="M2342 3014 c-177 -47 -296 -161 -337 -320 -40 -161 -39 -268 6 -392
41 -110 178 -211 337 -248 48 -11 101 -15 192 -12 116 4 128 7 170 32 91 57
215 199 262 302 20 43 23 65 23 189 0 138 0 141 -33 207 -57 117 -196 215
-350 247 -72 15 -206 13 -270 -5z"/>
<path d="M3193 2320 c-65 -14 -149 -57 -184 -97 -34 -39 -68 -107 -69 -135 -1
-60 -34 -80 -225 -134 -170 -47 -336 -122 -392 -177 -54 -51 -57 -138 -6 -158
40 -15 100 12 199 87 45 35 118 81 161 102 43 22 119 69 168 104 118 85 110
81 144 63 100 -51 270 45 346 197 37 74 44 118 22 136 -18 15 -114 22 -164 12z
m138 -20 c26 -15 24 -45 -10 -116 -37 -78 -80 -126 -144 -163 -84 -48 -129
-56 -181 -32 l-45 19 -103 -73 c-56 -40 -136 -92 -178 -114 -41 -22 -111 -68
-155 -101 -89 -67 -152 -95 -188 -86 -46 11 -43 82 6 135 45 47 251 137 408
176 57 15 124 36 149 48 42 21 45 26 67 97 24 81 72 148 124 175 72 38 209 57
250 35z"/>
<path d="M875 3350 c-3 -5 10 -30 29 -55 34 -44 56 -99 56 -140 -1 -38 -40
-106 -94 -164 -86 -89 -102 -145 -71 -249 19 -62 40 -77 93 -63 141 38 243
191 243 363 0 139 -50 234 -151 287 -43 22 -97 33 -105 21z"/>
<path d="M4078 3343 c-37 -42 -49 -162 -22 -216 9 -18 40 -57 69 -87 84 -89
105 -145 81 -222 -7 -26 -28 -65 -45 -87 -17 -21 -31 -42 -31 -45 0 -13 67 -5
105 13 196 89 209 436 23 596 -38 32 -112 65 -148 65 -9 0 -24 -8 -32 -17z"/>
<path d="M3926 3287 c-69 -68 -91 -130 -90 -247 1 -95 20 -156 73 -234 38 -54
104 -106 136 -106 27 0 93 63 111 107 33 76 11 137 -81 223 -44 42 -66 81 -76
135 -7 38 2 120 16 158 15 37 -36 17 -89 -36z"/>
<path d="M721 3300 c-62 -45 -117 -136 -137 -228 -15 -66 -15 -87 -5 -147 6
-38 24 -92 40 -120 44 -78 156 -154 136 -92 -15 45 -17 155 -4 194 6 21 38 65
69 98 31 33 64 71 73 85 37 55 11 160 -53 214 -41 34 -68 33 -119 -4z"/>
<path d="M211 3023 c-54 -19 -109 -73 -141 -138 -22 -44 -25 -63 -25 -160 1
-97 4 -117 27 -167 50 -108 161 -198 246 -198 29 0 35 5 52 43 24 52 26 146 4
188 -8 17 -44 62 -80 100 -50 55 -65 80 -71 112 -3 23 -6 43 -6 45 0 1 3 20 7
41 3 22 22 60 41 86 51 66 35 79 -54 48z"/>
<path d="M332 2985 c-59 -49 -88 -146 -61 -198 7 -12 40 -52 75 -89 92 -99
108 -163 72 -307 -6 -26 20 -22 63 12 28 21 55 55 76 94 78 152 44 343 -83
463 -62 58 -95 64 -142 25z"/>
<path d="M4654 2932 c-19 -12 -42 -65 -49 -113 -11 -74 8 -119 81 -200 36 -39
72 -86 80 -105 26 -63 13 -131 -37 -196 -50 -63 -37 -80 43 -56 90 27 170 139
184 259 19 166 -86 357 -223 403 -52 18 -63 19 -79 8z"/>
<path d="M4531 2899 c-43 -26 -64 -51 -99 -114 -25 -46 -27 -59 -27 -160 0
-118 13 -162 72 -248 33 -48 100 -97 131 -97 36 0 107 75 122 128 16 62 1 98
-79 186 -92 101 -106 159 -75 299 8 32 0 34 -45 6z"/>
<path d="M790 2605 c-138 -43 -219 -225 -176 -394 33 -129 117 -233 215 -266
71 -23 94 -11 114 62 30 106 19 145 -69 243 -37 40 -73 88 -80 106 -26 63 -13
131 37 196 30 39 38 68 17 67 -7 0 -33 -7 -58 -14z"/>
<path d="M4089 2606 c-101 -36 -190 -145 -218 -266 -45 -193 67 -399 217 -400
38 0 42 18 11 46 -53 47 -74 154 -44 218 9 18 40 59 71 90 30 32 62 72 71 89
21 41 20 130 -1 182 -25 58 -41 65 -107 41z"/>
<path d="M4246 2563 c14 -62 10 -165 -9 -199 -9 -18 -45 -63 -81 -102 -76 -83
-88 -119 -62 -187 18 -46 85 -115 112 -115 40 0 119 68 162 140 57 98 67 254
23 357 -25 55 -108 143 -137 143 -14 0 -15 -6 -8 -37z"/>
<path d="M888 2553 c-39 -40 -68 -97 -68 -133 0 -34 29 -81 90 -145 88 -93
105 -162 74 -297 -8 -36 8 -36 57 -2 83 57 124 159 117 293 -5 115 -43 196
-124 270 -69 64 -95 66 -146 14z"/>
<path d="M2810 1156 c-112 -32 -195 -88 -240 -161 -25 -41 -17 -68 35 -114 44
-38 74 -51 121 -51 46 0 67 12 137 77 81 74 122 93 201 93 36 0 77 -5 91 -10
15 -6 31 -8 36 -4 15 9 -31 82 -69 111 -78 59 -220 86 -312 59z"/>
<path d="M2002 1124 c-71 -19 -100 -35 -144 -81 -40 -41 -68 -98 -68 -138 0
-31 13 -32 54 0 70 53 146 68 209 41 18 -7 65 -43 105 -80 40 -36 85 -69 100
-73 46 -13 128 -6 169 13 48 24 54 61 22 129 -72 153 -270 237 -447 189z"/>
<path d="M2985 944 c-16 -8 -59 -41 -95 -73 -36 -32 -74 -62 -85 -68 -65 -33
-145 -21 -214 33 -24 18 -48 31 -52 28 -29 -18 21 -136 77 -182 67 -55 134
-74 244 -70 76 3 106 9 152 30 112 52 204 170 196 251 -3 27 -9 34 -48 49 -57
21 -136 23 -175 2z"/>
<path d="M1935 908 c-45 -16 -81 -45 -105 -83 -20 -33 -21 -36 -5 -69 24 -50
86 -103 163 -139 122 -57 283 -47 380 23 43 31 100 106 89 116 -3 4 -26 1 -51
-5 -61 -15 -130 -14 -170 3 -18 8 -64 42 -102 76 -95 86 -133 101 -199 78z"/>
<path d="M2331 575 c-35 -13 -80 -36 -100 -53 -49 -39 -101 -109 -101 -134 0
-30 81 -105 130 -119 60 -18 103 -1 187 76 103 94 159 111 269 84 25 -6 48 -9
51 -5 13 13 -33 80 -77 113 -91 67 -238 83 -359 38z"/>
<path d="M2615 395 c-5 -2 -23 -6 -38 -9 -15 -4 -61 -35 -101 -70 -87 -76
-123 -96 -173 -96 -42 0 -130 37 -152 63 -22 27 -41 21 -41 -13 0 -74 60 -154
146 -194 194 -92 462 10 524 200 17 52 10 77 -30 96 -34 16 -115 30 -135 23z"/>
</g>
</svg>
